<?xml version="1.0" encoding="UTF-8" standalone="no"?>
<!-- Created with Inkscape (http://www.inkscape.org/) -->

<svg
   width="48"
   height="48"
   viewBox="0 0 12.7 12.7"
   version="1.1"
   id="svg1635"
   inkscape:version="1.2 (dc2aedaf03, 2022-05-15)"
   sodipodi:docname="Arch.svg"
   xmlns:inkscape="http://www.inkscape.org/namespaces/inkscape"
   xmlns:sodipodi="http://sodipodi.sourceforge.net/DTD/sodipodi-0.dtd"
   xmlns="http://www.w3.org/2000/svg"
   xmlns:svg="http://www.w3.org/2000/svg">
  <sodipodi:namedview
     id="namedview1637"
     pagecolor="#ffffff"
     bordercolor="#666666"
     borderopacity="1.0"
     inkscape:showpageshadow="2"
     inkscape:pageopacity="0.0"
     inkscape:pagecheckerboard="0"
     inkscape:deskcolor="#d1d1d1"
     inkscape:document-units="mm"
     showgrid="false"
     showguides="true"
     inkscape:zoom="9.5144352"
     inkscape:cx="-4.1515864"
     inkscape:cy="16.080828"
     inkscape:window-width="1908"
     inkscape:window-height="1008"
     inkscape:window-x="6"
     inkscape:window-y="46"
     inkscape:window-maximized="0"
     inkscape:current-layer="layer1">
    <sodipodi:guide
       position="8.2869695,2.0771064"
       orientation="0,-1"
       id="guide2285"
       inkscape:locked="false" />
  </sodipodi:namedview>
  <defs
     id="defs1632">
    <inkscape:path-effect
       effect="spiro"
       id="path-effect2736"
       is_visible="true"
       lpeversion="1" />
    <inkscape:path-effect
       effect="spiro"
       id="path-effect2716"
       is_visible="true"
       lpeversion="1" />
    <inkscape:path-effect
       effect="spiro"
       id="path-effect2712"
       is_visible="true"
       lpeversion="1" />
    <inkscape:path-effect
       effect="spiro"
       id="path-effect2708"
       is_visible="true"
       lpeversion="1" />
    <inkscape:path-effect
       effect="spiro"
       id="path-effect2704"
       is_visible="true"
       lpeversion="1" />
  </defs>
  <g
     inkscape:label="Layer 1"
     inkscape:groupmode="layer"
     id="layer1">
    <path
       id="path2283"
       style="fill:#cb6500;fill-opacity:1;stroke:#000000;stroke-width:0;stroke-dasharray:none"
       inkscape:transform-center-x="-4.093378"
       inkscape:transform-center-y="-3.5914924"
       d="m -2.34098,-10.892717 c -0.415936,-0.0069 -1.118111,0.699691 -1.844849,1.6815516 l 0.562757,0.613916 -0.807186,-0.2754354 c -1.360298,1.9372067 -2.703439,4.6651996 -2.326473,5.3438599 0.183519,0.3303943 0.995524,0.5711293 2.052588,0.7162353 0.06564,-0.6196329 0.802812,-1.977773 1.460376,-2.8236002 a 1.3805655,1.3805655 0 0 1 -0.59583,-1.1353313 1.3805655,1.3805655 0 0 1 1.380795,-1.3807942 1.3805655,1.3805655 0 0 1 1.380794,1.3807942 1.3805655,1.3805655 0 0 1 -0.545703,1.098641 c 0.63992002,0.8598525 1.36351402,2.2915601 1.41231702,2.9305705 1.044071,-0.1111071 1.84746498,-0.3238888 2.03966898,-0.6444051 0.07182,-0.1197593 0.08976,-0.3081116 0.06408,-0.5472535 L -0.29149098,-6.3157349 1.320814,-5.7653809 C 0.36526602,-7.9896315 -1.510881,-10.878955 -2.34098,-10.892717 Z" />
    <path
       id="path2204"
       style="fill:#cb6500;stroke:#000000;stroke-width:0;stroke-dasharray:none"
       inkscape:transform-center-y="-1.1874958"
       d="m -11.414953,-3.3996705 c -0.582211,0 -1.690911,1.3009824 -2.790527,2.97397871 0.880375,1.0671607 1.443259,1.97325629 1.065568,2.00917969 -0.209767,0.019951 -0.949093,-0.2075311 -1.95492,-0.5720581 -1.395383,2.3916838 -2.519846,4.9931224 -2.134753,5.6601194 0.111892,0.193803 0.430506,0.35812 0.891935,0.494544 0.294486,-0.866237 2.386598,-2.8478148 3.84576,-3.7160526 a 1.2012382,1.2012382 0 0 1 -0.12454,-0.5333008 1.2012382,1.2012382 0 0 1 1.201477,-1.201477 1.2012382,1.2012382 0 0 1 0.81132,0.315743 c 0.839835,-0.1889149 2.7245852,-0.3662573 2.7962118,-0.2232422 0.00388,0.00775 0.00271,0.017849 -0.00207,0.030489 l -2.0469034,0.7420736 2.167826,-0.07028 C -7.842088,2.7009971 -9.5298278,3.1950631 -10.274454,3.2908772 a 1.2012382,1.2012382 0 0 1 -0.06408,0.1591634 c 1.4591629,0.8682378 3.5517923,2.8498156 3.8462773,3.7160526 0.46143,-0.136425 0.779525,-0.300741 0.891418,-0.494544 0.08821,-0.152784 0.096123,-0.407924 0.040825,-0.737939 -1.446249,-1.1526141 -2.6397067,-2.3624902 -2.183846,-2.482536 0.157671,-0.041521 0.651008,0.011529 1.352889,0.1286743 -1.3745359,-2.99653429 -4.0045773,-6.979419 -5.0239833,-6.979419 z" />
    <path
       id="path2393"
       style="fill:#cb6500;fill-opacity:1;stroke:#000000;stroke-width:0"
       inkscape:transform-center-y="-1.6447306"
       d="m 6.3501045,0.88700599 c -0.6320186,0 -1.8523724,1.45346671 -3.043403,3.29178581 A 3.2464205,3.2464205 0 0 0 4.9447432,5.5035 3.2464205,3.2464205 0 0 1 4.5928676,5.5249123 3.2464205,3.2464205 0 0 1 2.8056534,4.9788984 C 1.1960469,7.6271112 -0.19410173,10.717002 0.24045876,11.469683 0.313164,11.595613 0.46876068,11.710091 0.69083094,11.812994 2.0142895,10.041473 3.5932742,8.2898486 4.8333992,7.3249739 A 1.5995729,1.5995729 0 0 1 4.7506049,6.8203571 1.5995729,1.5995729 0 0 1 6.3501045,5.2208576 1.5995729,1.5995729 0 0 1 7.9496041,6.8203571 1.5995729,1.5995729 0 0 1 7.8668097,7.3249739 c 1.240125,0.9648747 2.8191103,2.7164991 4.1425673,4.4880201 0.222072,-0.102903 0.377668,-0.217381 0.450373,-0.343311 0.144016,-0.249443 0.08697,-0.756492 -0.111345,-1.418208 A 4.1952795,4.1952795 0 0 0 9.8445928,7.561223 4.1952795,4.1952795 0 0 1 10.299248,7.5333867 4.1952795,4.1952795 0 0 1 11.372005,7.6739942 C 9.8775852,4.6090457 7.3616033,0.88700599 6.3501045,0.88700599 Z" />
  </g>
</svg>
