<?xml version="1.0" encoding="UTF-8" standalone="no"?>
<!-- Created with Inkscape (http://www.inkscape.org/) -->

<svg
   width="48"
   height="48"
   viewBox="0 0 12.7 12.7"
   version="1.1"
   id="svg5"
   inkscape:version="1.2 (dc2aedaf03, 2022-05-15)"
   sodipodi:docname="Googlelogo.svg"
   xmlns:inkscape="http://www.inkscape.org/namespaces/inkscape"
   xmlns:sodipodi="http://sodipodi.sourceforge.net/DTD/sodipodi-0.dtd"
   xmlns="http://www.w3.org/2000/svg"
   xmlns:svg="http://www.w3.org/2000/svg">
  <sodipodi:namedview
     id="namedview7"
     pagecolor="#ffffff"
     bordercolor="#666666"
     borderopacity="1.0"
     inkscape:showpageshadow="2"
     inkscape:pageopacity="0.0"
     inkscape:pagecheckerboard="0"
     inkscape:deskcolor="#d1d1d1"
     inkscape:document-units="mm"
     showgrid="false"
     showguides="true"
     inkscape:zoom="9.5144352"
     inkscape:cx="34.841795"
     inkscape:cy="15.765518"
     inkscape:window-width="1920"
     inkscape:window-height="1020"
     inkscape:window-x="0"
     inkscape:window-y="40"
     inkscape:window-maximized="1"
     inkscape:current-layer="layer2">
    <sodipodi:guide
       position="2.7808623,11.754507"
       orientation="0,-1"
       id="guide820"
       inkscape:locked="false" />
  </sodipodi:namedview>
  <defs
     id="defs2">
    <inkscape:path-effect
       effect="spiro"
       id="path-effect686"
       is_visible="true"
       lpeversion="1" />
    <inkscape:path-effect
       effect="spiro"
       id="path-effect682"
       is_visible="true"
       lpeversion="1" />
    <inkscape:path-effect
       effect="spiro"
       id="path-effect682-7"
       is_visible="true"
       lpeversion="1" />
  </defs>
  <g
     inkscape:groupmode="layer"
     id="layer2"
     inkscape:label="Layer 2">
    <g
       id="g825"
       transform="matrix(1.1558934,0,0,1.1558934,-0.71658975,-0.37348436)"
       style="fill:#cb6500;fill-opacity:1">
      <path
         id="rect428"
         style="fill:#cb6500;stroke:#000000;stroke-width:0;fill-opacity:1"
         inkscape:transform-center-x="2.614133"
         inkscape:transform-center-y="-0.69513091"
         d="M 0.80408529,0.92914225 A 3.362072,3.362072 0 0 0 0.73380534,1.6019694 3.362072,3.362072 0 0 0 2.4065715,4.5072184 4.3546706,4.3546706 0 0 0 1.9957438,6.35 4.3546706,4.3546706 0 0 0 6.35,10.704256 4.3546706,4.3546706 0 0 0 10.704256,6.35 a 4.3546706,4.3546706 0 0 0 0,-5.168e-4 4.3546706,4.3546706 0 0 0 0,-5.167e-4 4.3546706,4.3546706 0 0 0 0,-5.168e-4 4.3546706,4.3546706 0 0 0 0,-5.168e-4 4.3546706,4.3546706 0 0 0 0,-5.167e-4 H 9.3394816 9.3157104 5.4901042 V 7.7798869 H 8.9477743 A 2.9656456,2.9656456 0 0 1 6.35,9.3157104 2.9656456,2.9656456 0 0 1 3.3842896,6.35 2.9656456,2.9656456 0 0 1 6.35,3.3842896 2.9656456,2.9656456 0 0 1 7.7943563,3.7599772 L 8.4873372,2.5585002 A 4.3546706,4.3546706 0 0 0 6.35,1.9957438 4.3546706,4.3546706 0 0 0 3.0933512,3.4633545 3.362072,3.362072 0 0 1 0.80408529,0.92914225 Z" />
      <path
         id="path770-5"
         style="fill:#cb6500;stroke:#000000;stroke-width:0;fill-opacity:1"
         d="M 11.422966,0.95869281 A 3.362072,3.362072 0 0 1 11.493256,1.6315202 3.362072,3.362072 0 0 1 8.8797728,4.9086247 V 3.56297 A 3.362072,3.362072 0 0 0 11.422961,0.95869281 Z" />
    </g>
  </g>
  <g
     inkscape:label="Layer 1"
     inkscape:groupmode="layer"
     id="layer1" />
</svg>
