<?xml version="1.0" encoding="UTF-8" standalone="no"?>
<!-- Created with Inkscape (http://www.inkscape.org/) -->

<svg
   width="48"
   height="48"
   viewBox="0 0 12.7 12.7"
   version="1.1"
   id="svg5"
   inkscape:version="1.2 (dc2aedaf03, 2022-05-15)"
   sodipodi:docname="Worldmap.svg"
   xmlns:inkscape="http://www.inkscape.org/namespaces/inkscape"
   xmlns:sodipodi="http://sodipodi.sourceforge.net/DTD/sodipodi-0.dtd"
   xmlns="http://www.w3.org/2000/svg"
   xmlns:svg="http://www.w3.org/2000/svg">
  <sodipodi:namedview
     id="namedview7"
     pagecolor="#ffffff"
     bordercolor="#666666"
     borderopacity="1.0"
     inkscape:showpageshadow="2"
     inkscape:pageopacity="0.0"
     inkscape:pagecheckerboard="0"
     inkscape:deskcolor="#d1d1d1"
     inkscape:document-units="mm"
     showgrid="false"
     inkscape:zoom="38.05774"
     inkscape:cx="27.970657"
     inkscape:cy="29.560347"
     inkscape:window-width="1920"
     inkscape:window-height="1040"
     inkscape:window-x="0"
     inkscape:window-y="40"
     inkscape:window-maximized="1"
     inkscape:current-layer="layer1" />
  <defs
     id="defs2" />
  <g
     inkscape:label="Layer 1"
     inkscape:groupmode="layer"
     id="layer1">
    <path
       id="path184"
       style="fill:#cb6500;stroke:#000000;stroke-width:0;stroke-dasharray:none;fill-opacity:1"
       d="M 6.35 1.1632365 A 5.1869736 5.1869736 0 0 0 1.1632365 6.35 A 5.1869736 5.1869736 0 0 0 6.35 11.536764 A 5.1869736 5.1869736 0 0 0 11.536764 6.35 A 5.1869736 5.1869736 0 0 0 11.349178 4.9779907 C 11.329255 5.1860952 11.291351 5.3447206 11.23394 5.3789998 C 11.120533 5.4467141 10.615964 5.2176461 10.224699 4.9743734 L 10.224699 5.1826294 C 10.224699 5.2399726 9.8809987 5.2859823 9.4542033 5.2859823 C 9.4003371 5.2859823 9.3483385 5.2853087 9.2976237 5.2839152 A 0.83318349 0.29800918 32.262239 0 0 8.5803548 5.2213867 A 0.83318349 0.29800918 32.262239 0 0 9.2361287 5.9376221 A 0.83318349 0.29800918 32.262239 0 0 9.3580851 6.0011841 C 9.336479 6.1785993 9.2728702 6.4060857 9.1777344 6.665743 A 0.28216675 0.57972312 68.277249 0 0 8.595341 6.6900309 A 0.28216675 0.57972312 68.277249 0 0 8.161259 7.1664876 A 0.28216675 0.57972312 68.277249 0 0 8.8046305 7.2140299 A 0.28216675 0.57972312 68.277249 0 0 8.994283 7.117395 C 8.8831648 7.3714216 8.7527745 7.6421448 8.6087769 7.9183797 A 0.19911493 0.55721229 31.382878 0 0 8.1690104 8.2987183 A 0.19911493 0.55721229 31.382878 0 0 8.0486043 8.8780111 A 0.19911493 0.55721229 31.382878 0 0 8.0641073 8.884729 C 7.9019133 9.1521651 7.7352888 9.4105001 7.5705973 9.6485067 A 0.18945111 0.36563951 37.337715 0 0 7.2114461 9.8329915 A 0.18945111 0.36563951 37.337715 0 0 7.1344482 10.233484 C 6.7950399 10.651459 6.4942216 10.922847 6.3029744 10.922847 C 6.1147167 10.922847 5.8204702 10.660952 5.4875203 10.254154 L 5.4875203 9.7802816 A 0.33278379 0.45282406 0 0 1 5.475118 9.7813151 A 0.33278379 0.45282406 0 0 1 5.1423218 9.3281128 A 0.33278379 0.45282406 0 0 1 5.365564 8.9038493 A 0.18318085 0.26717025 0 0 0 5.4585815 8.9415731 A 0.18318085 0.26717025 0 0 0 5.6415161 8.6744059 A 0.18318085 0.26717025 0 0 0 5.4585815 8.406722 A 0.18318085 0.26717025 0 0 0 5.3898519 8.4268758 A 0.26786867 0.36374363 0 0 1 5.2306885 8.0976969 A 0.26786867 0.36374363 0 0 1 5.4875203 7.7344116 L 5.4875203 7.7251099 C 5.4875203 7.6825789 5.3718961 7.6451559 5.1934814 7.6202067 A 0.41677365 0.18005621 0 0 0 4.7764526 7.4434733 A 0.41677365 0.18005621 0 0 0 4.3676921 7.5886841 L 3.8302572 7.5886841 C 3.8292261 7.5865808 3.8281857 7.5845849 3.8271566 7.5824829 A 0.45367441 0.32497975 56.986576 0 1 3.8188883 7.5881673 A 0.45367441 0.32497975 56.986576 0 1 3.2990234 7.3850789 A 0.45367441 0.32497975 56.986576 0 1 3.2049723 7.1096436 A 0.21282711 0.46526024 4.2059595 0 1 3.1005859 6.709668 A 0.21282711 0.46526024 4.2059595 0 1 3.2943726 6.2326945 A 0.24921141 0.62488345 32.086595 0 1 3.4628377 5.7893107 A 0.24921141 0.62488345 32.086595 0 1 3.9940715 5.3650472 C 4.5109643 5.2534054 5.2418661 5.1906517 5.9986003 5.1774618 A 0.40702486 0.21409321 0 0 0 5.8797445 5.3268066 A 0.40702486 0.21409321 0 0 0 6.2869548 5.5412638 A 0.40702486 0.21409321 0 0 0 6.6936483 5.3268066 A 0.40702486 0.21409321 0 0 0 6.5768595 5.176945 C 6.883613 5.1817135 7.1867266 5.1948031 7.4734456 5.2157023 C 7.4836226 5.1063582 7.8077696 4.7809968 8.0253499 4.6322754 C 7.7428521 4.619671 7.5313232 4.563775 7.5313232 4.4963664 L 7.5313232 3.6927979 C 7.4921595 3.7214902 7.4336042 3.7466892 7.3597575 3.7661784 L 7.3597575 4.2922445 C 7.3597575 4.401901 7.250394 4.4901652 7.1148112 4.4901652 C 6.9792284 4.4901652 6.8703817 4.401901 6.8703817 4.2922445 L 6.8703817 3.8101034 L 6.1169393 3.8101034 L 6.4688558 4.3961141 C 6.5253366 4.4901048 6.4654236 4.6290448 6.3344971 4.707723 C 6.2035679 4.7864012 6.0524999 4.7743252 5.9960164 4.6803345 L 5.5061239 3.8648804 C 5.3984033 3.9636261 5.1457265 4.1090708 4.9268311 4.2074951 C 4.9766194 4.2500266 5.0092719 4.2869451 5.0162313 4.312915 C 5.0536308 4.4524995 4.600294 5.2382447 4.4607096 5.275647 C 4.3211279 5.3130465 3.53538 4.8591903 3.4979777 4.7196086 C 3.4605755 4.5800241 3.9144344 3.7942789 4.0540161 3.7568766 C 4.0835757 3.7489562 4.1420158 3.7635426 4.2162801 3.7920166 C 4.1151198 3.5874903 4.0397864 3.3864872 4.0597005 3.3238281 C 4.1007355 3.1947182 4.8109785 2.8199079 5.0131307 2.8096476 C 5.0266079 2.8089636 5.0381127 2.8100125 5.0467204 2.8127482 C 5.0480219 2.8131618 5.0495037 2.8142667 5.0508545 2.8148153 L 5.0508545 2.6075928 C 5.0508545 2.5013631 5.3059132 2.4149539 5.628597 2.409672 C 5.6390064 2.4095017 5.6495755 2.409672 5.6601196 2.409672 L 6.126241 2.409672 L 6.126241 2.093929 C 6.126241 2.0554119 6.1600953 2.0194075 6.2182251 1.9890259 C 6.1425376 1.9526276 6.0931681 1.8922117 6.0931681 1.8231445 L 6.0931681 1.5270386 L 5.799646 1.9140951 C 5.754076 1.9741919 5.6625283 1.9811867 5.5944906 1.929598 C 5.5264504 1.8780069 5.5080962 1.7881567 5.5536662 1.7280599 L 5.8880127 1.2872599 C 5.9335803 1.2271631 6.0251304 1.2206826 6.0931681 1.2722738 C 6.1110705 1.2858458 6.125323 1.3016596 6.1360596 1.3192993 C 6.1860969 1.2630807 6.2748945 1.2254786 6.3768717 1.2236979 C 6.3793796 1.2236541 6.3820996 1.2236979 6.3846232 1.2236979 C 6.5158493 1.2236979 6.6263771 1.2832964 6.6631592 1.3658081 C 6.7211666 1.3483991 6.8177993 1.3368693 6.9272257 1.3368693 C 7.1053231 1.3368693 7.2486532 1.367236 7.2486532 1.4045654 L 7.2486532 1.5993856 C 7.2486532 1.636715 7.1053231 1.6670817 6.9272257 1.6670817 C 6.8255337 1.6670817 6.7349018 1.6571159 6.6760783 1.6417603 L 6.6760783 1.8231445 C 6.6760783 1.849409 6.6689339 1.8745932 6.6559245 1.8975586 C 6.6718633 1.8968851 6.6876751 1.8962752 6.7039836 1.8960083 C 6.714393 1.8958379 6.724962 1.8960083 6.7355062 1.8960083 L 6.8321411 1.8960083 C 7.0558994 1.8960083 7.2502134 1.9350292 7.3561401 1.99316 L 7.3561401 1.5585612 C 7.3561401 1.4895746 7.5810518 1.4310786 7.9044271 1.4045654 A 5.1869736 5.1869736 0 0 0 6.35 1.1632365 z M 4.3780273 1.7688843 C 4.4214199 1.7687628 4.4668501 1.780497 4.5098022 1.804541 C 4.6243435 1.8686583 4.6734359 1.9972092 4.619873 2.0928955 L 4.2948283 2.6737386 C 4.2412654 2.7694249 4.1060289 2.7946986 3.9914876 2.7305827 C 3.8769464 2.6664654 3.8278553 2.5379145 3.8814168 2.4422282 L 4.2064616 1.8613851 C 4.2399384 1.8015817 4.3057079 1.7690868 4.3780273 1.7688843 z M 7.58455 3.0768148 L 7.58455 3.5501709 C 7.6801952 3.5016833 7.8951264 3.4680054 8.1467896 3.4680054 L 8.4072388 3.4680054 C 8.4689336 3.4680054 8.5274593 3.4704182 8.5834554 3.4742065 C 8.5825383 3.4685156 8.5819051 3.4625289 8.5819051 3.4566366 L 8.5819051 3.1248739 C 8.5819051 3.1208545 8.5825075 3.1169159 8.5829386 3.1129883 C 8.471253 3.1235643 8.3429086 3.1295247 8.2062174 3.1295247 C 7.952325 3.1295247 7.7277887 3.1090689 7.58455 3.0768148 z M 9.0955688 3.4716227 A 0.22830431 0.52715617 0 0 0 8.867159 3.9987223 A 0.22830431 0.52715617 0 0 0 9.0955688 4.5258219 A 0.22830431 0.52715617 0 0 0 9.3239787 3.9987223 A 0.22830431 0.52715617 0 0 0 9.0955688 3.4716227 z M 8.2692627 4.6348592 C 8.2712382 4.6381691 8.2734795 4.6417112 8.2754639 4.6451945 C 8.2764841 4.641718 8.2774992 4.6382423 8.2790812 4.6348592 L 8.2692627 4.6348592 z M 7.332369 5.3376587 A 1.0180357 0.13503025 68.022797 0 0 7.323584 5.339209 A 1.0180357 0.13503025 68.022797 0 0 7.5793823 6.3334635 A 1.0180357 0.13503025 68.022797 0 0 8.0858114 7.2269491 A 1.0180357 0.13503025 68.022797 0 0 8.0858114 7.0150757 C 8.0882202 6.9866112 8.0821626 6.9505727 8.0666911 6.9137899 L 8.0542887 6.8848511 A 1.0180357 0.13503025 68.022797 0 0 7.830013 6.2326945 A 1.0180357 0.13503025 68.022797 0 0 7.332369 5.3376587 z M 8.8180664 8.5498657 A 0.22748438 0.65397668 22.646568 0 1 8.8511393 8.5560669 A 0.22748438 0.65397668 22.646568 0 1 8.8092814 9.2474976 A 0.22748438 0.65397668 22.646568 0 1 8.3478109 9.7632284 A 0.22748438 0.65397668 22.646568 0 1 8.3896688 9.0723145 A 0.22748438 0.65397668 22.646568 0 1 8.8056641 8.5508993 A 0.22748438 0.65397668 22.646568 0 1 8.8180664 8.5498657 z " />
  </g>
</svg>
